<svg version="1.1" preserveAspectRatio="none" xmlns="http://www.w3.org/2000/svg" width="500" height="500" viewBox="0 0 500 500"><rect width="100%" height="100%" fill="#FFFFFF" fill-opacity="1"/><svg viewBox="113.1005 133.9966 445.0784 40" width="333" height="29.92731168261592" x="83.5px" y="235.0363px" xmlns="http://www.w3.org/2000/svg" xmlns:xlink="http://www.w3.org/1999/xlink" preserveAspectRatio="none"><defs></defs><style>.companyName {fill:#182145;fill-opacity:1;}.icon1 {fill:#182145;fill-opacity:1;}.icon2 {fill:#E35B34;fill-opacity:1;}.icon3 {fill:#E3D454;fill-opacity:1;}.icon3-str {stroke:#E3D454;stroke-opacity:1;}</style><g opacity="1" transform="rotate(0 113.1005 133.9966)">
<svg width="39.3509" height="40" x="113.1005" y="133.9966" version="1.1" preserveAspectRatio="none" viewBox="0.006204328965395689 0 94.63945770263672 96.20050811767578">
  <g transform="matrix(1 0 0 1 0 0)" class="icon1"><title>shooting_star_1</title><g data-name="Layer 2"><g data-name="Layer 2"><g><path d="M28.63,54.59c.49.1,1.59,0,4.79-4.25a29.6,29.6,0,0,0,2.64-3.91c2.38-4.35,6.8-8.38,12.87-13.91C51.76,30,55,27.28,57.92,25a.93.93,0,0,1-.14-.14,1.67,1.67,0,0,1,2.62-2.06,2.39,2.39,0,0,1,.13.21l1-.73c2.13-1.55,4.27-3.09,6.37-4.69C69,16.73,69.66,16,71,15.13c1.8-1.17,2.52-1.28,4-2.33a9.69,9.69,0,0,0,3-3c2-3.41.42-8-1-8.89A7.29,7.29,0,0,0,75.63.31,5.4,5.4,0,0,0,74.24,0a12.5,12.5,0,0,0-3.71.89,34.56,34.56,0,0,0-6.68,3.43A92,92,0,0,0,40.1,25.49,106.64,106.64,0,0,0,31.43,39.2,42,42,0,0,0,28,46.41a34.34,34.34,0,0,0-.89,3.73c-.31,1.51-.4,2.19-.07,2.93C27.16,53.28,27.69,54.4,28.63,54.59Zm40.74-50a1.67,1.67,0,1,1-1.73,1.6A1.66,1.66,0,0,1,69.37,4.62Zm-8.05,8.65a1.67,1.67,0,1,1-1.73,1.59A1.67,1.67,0,0,1,61.32,13.27Zm-8.06,2.57a1.67,1.67,0,1,1-1.73,1.6A1.67,1.67,0,0,1,53.26,15.84Zm-3.53,9A1.66,1.66,0,1,1,48,26.44,1.67,1.67,0,0,1,49.73,24.85Zm-8.24,4.87a1.67,1.67,0,1,1-1.73,1.6A1.67,1.67,0,0,1,41.49,29.72ZM33.64,41.65A1.66,1.66,0,1,1,33.28,44,1.67,1.67,0,0,1,33.64,41.65Z"></path><path d="M69.22,42.07q2.4-1.14,4.83-2.19c2.91-1.25,5.88-2.35,8.74-3.71,3.46-1.64,7.09-3.55,9.71-6.4,2.32-2.52,3-5.65.83-8.51-2.51-3.33-6.75-3.35-10.46-2.38a37.55,37.55,0,0,0-9,3.81,1.66,1.66,0,1,1-2.29,1.47c0-.05,0-.09,0-.14l-1.08.66c-4.05,2.54-7.92,5.37-11.71,8.27-.62.48-1.22,1-1.83,1.45a1.69,1.69,0,0,1,.13.71,1.67,1.67,0,0,1-1.73,1.6,1.71,1.71,0,0,1-.9-.31Q50,40,45.93,44.07a1.39,1.39,0,0,1,0,.41,1.66,1.66,0,0,1-1.73,1.6,1.54,1.54,0,0,1-.3,0c-.11.11-.23.22-.34.34a88.61,88.61,0,0,0-6.47,7.49c-.45.6-.9,1.2-1.34,1.81a7.65,7.65,0,0,0-.57,1c-1,2-1.95,4-1.14,5.11a1.45,1.45,0,0,0,.68.51c1,.34,2.08-.48,2.92-1,1.54-.87,3-1.8,4.53-2.75,3-1.92,5.89-4,8.82-6A136.49,136.49,0,0,1,69.22,42.07ZM89.58,24.56a1.67,1.67,0,1,1-1.73,1.59A1.67,1.67,0,0,1,89.58,24.56Zm-8.64.28a1.67,1.67,0,1,1-1.74,1.6A1.67,1.67,0,0,1,80.94,24.84Zm-3.58,8a1.67,1.67,0,1,1-1.73,1.6A1.67,1.67,0,0,1,77.36,32.82ZM67.75,29.6A1.67,1.67,0,1,1,66,31.2,1.67,1.67,0,0,1,67.75,29.6Zm-2.28,7.61a1.66,1.66,0,1,1-1.74,1.59A1.65,1.65,0,0,1,65.47,37.21ZM54.61,41.38A1.67,1.67,0,1,1,52.88,43,1.65,1.65,0,0,1,54.61,41.38ZM42,55.39A1.67,1.67,0,1,1,41.85,53,1.66,1.66,0,0,1,42,55.39Zm7.28-4.49A1.67,1.67,0,1,1,51,49.31,1.67,1.67,0,0,1,49.26,50.9Z"></path><path d="M86.36,45.25c-5-.16-9.92,1.76-14.42,3.62-2.36,1-4.61,2.17-6.93,3.2-3.06,1.36-5,2.38-6.53,3.14-4.14,2-6.16,3.16-7.16,3.77-3.57,2.19-6.35,3.93-6.14,5.91a2.38,2.38,0,0,0,1.12,1.75c1.31.77,3-.32,7.1-2.2,1.42-.65,2.82-1.37,4.3-1.9a129.53,129.53,0,0,1,18.51-4.65c3.72-.75,4.82-.82,7.08-1.49,3.8-1.12,9-2.66,9.55-5.8a4.25,4.25,0,0,0-.93-3.22A7.74,7.74,0,0,0,86.36,45.25Zm-32.48,16a1.67,1.67,0,1,1,1.73-1.6A1.67,1.67,0,0,1,53.88,61.27Zm8.72-2a1.67,1.67,0,1,1,1.73-1.6A1.67,1.67,0,0,1,62.6,59.23Zm8-4a1.67,1.67,0,1,1,1.73-1.6A1.67,1.67,0,0,1,70.63,55.2Zm7.83.92a1.67,1.67,0,1,1,1.73-1.6A1.67,1.67,0,0,1,78.46,56.12ZM86.19,51a1.67,1.67,0,1,1,1.73-1.6A1.67,1.67,0,0,1,86.19,51Z"></path><path d="M40.23,71.32l-11.1-3.06a1.75,1.75,0,0,1-1.2-1.12L24.15,56.26A1.76,1.76,0,0,0,21,55.87l-6.34,9.61a1.78,1.78,0,0,1-1.44.8L1.73,66.5A1.77,1.77,0,0,0,.39,69.37l7.18,9A1.78,1.78,0,0,1,7.88,80L4.54,91a1.76,1.76,0,0,0,2.31,2.16L17.62,89.1a1.78,1.78,0,0,1,1.63.21l9.45,6.58a1.77,1.77,0,0,0,2.77-1.53L31,82.86a1.74,1.74,0,0,1,.69-1.48l9.18-6.95A1.77,1.77,0,0,0,40.23,71.32Z"></path></g></g></g></g>
</svg>
</g><g opacity="1" transform="rotate(0 172.4514 133.9966)">
<svg width="385.7275" height="40" x="172.4514" y="133.9966" version="1.1" preserveAspectRatio="none" viewBox="3.32 -28.48 279.24 28.96">
  <g transform="matrix(1 0 0 1 0 0)" class="companyName"><path id="id-D6z1nYkh10" d="M9.76-5.20L25-5.20L25 0L3.32 0L3.32-28L24.48-28L24.48-22.80L9.76-22.80L9.76-16.72L22.76-16.72L22.76-11.68L9.76-11.68L9.76-5.20Z M49.44-28L55.84-28L55.84 0L50.52 0L36.56-17L36.56 0L30.16 0L30.16-28L35.52-28L49.44-11L49.44-28Z M68.92-5.20L84.16-5.20L84.16 0L62.48 0L62.48-28L83.64-28L83.64-22.80L68.92-22.80L68.92-16.72L81.92-16.72L81.92-11.68L68.92-11.68L68.92-5.20Z M114.12 0L107.16 0L101.76-7.80L101.44-7.80L95.80-7.80L95.80 0L89.32 0L89.32-28L101.44-28Q105.16-28 107.90-26.76Q110.64-25.52 112.12-23.24Q113.60-20.96 113.60-17.84L113.60-17.84Q113.60-14.72 112.10-12.46Q110.60-10.20 107.84-9L107.84-9L114.12 0ZM107.04-17.84Q107.04-20.20 105.52-21.46Q104-22.72 101.08-22.72L101.08-22.72L95.80-22.72L95.80-12.96L101.08-12.96Q104-12.96 105.52-14.24Q107.04-15.52 107.04-17.84L107.04-17.84Z M137.64-6.24L137.64-14.44L143.56-14.44L143.56-3.08Q141.28-1.36 138.28-0.44Q135.28 0.48 132.24 0.48L132.24 0.48Q127.88 0.48 124.40-1.38Q120.92-3.24 118.94-6.54Q116.96-9.84 116.96-14L116.96-14Q116.96-18.16 118.94-21.46Q120.92-24.76 124.44-26.62Q127.96-28.48 132.36-28.48L132.36-28.48Q136.04-28.48 139.04-27.24Q142.04-26 144.08-23.64L144.08-23.64L139.92-19.80Q136.92-22.96 132.68-22.96L132.68-22.96Q130-22.96 127.92-21.84Q125.84-20.72 124.68-18.68Q123.52-16.64 123.52-14L123.52-14Q123.52-11.40 124.68-9.36Q125.84-7.32 127.90-6.18Q129.96-5.04 132.60-5.04L132.60-5.04Q135.40-5.04 137.64-6.24L137.64-6.24Z M173.88-28L163-9.92L163 0L156.52 0L156.52-10L145.68-28L152.56-28L160.04-15.56L167.52-28L173.88-28Z M181.88 0L181.88-22.72L172.92-22.72L172.92-28L197.32-28L197.32-22.72L188.36-22.72L188.36 0L181.88 0Z M207.24-5.20L222.48-5.20L222.48 0L200.80 0L200.80-28L221.96-28L221.96-22.80L207.24-22.80L207.24-16.72L220.24-16.72L220.24-11.68L207.24-11.68L207.24-5.20Z M240.96 0.48Q236.68 0.48 233.22-1.38Q229.76-3.24 227.78-6.54Q225.80-9.84 225.80-14L225.80-14Q225.80-18.16 227.78-21.46Q229.76-24.76 233.22-26.62Q236.68-28.48 241.00-28.48L241.00-28.48Q244.64-28.48 247.58-27.20Q250.52-25.92 252.52-23.52L252.52-23.52L248.36-19.68Q245.52-22.96 241.32-22.96L241.32-22.96Q238.72-22.96 236.68-21.82Q234.64-20.68 233.50-18.64Q232.36-16.60 232.36-14L232.36-14Q232.36-11.40 233.50-9.36Q234.64-7.32 236.68-6.18Q238.72-5.04 241.32-5.04L241.32-5.04Q245.52-5.04 248.36-8.36L248.36-8.36L252.52-4.52Q250.52-2.08 247.56-0.80Q244.60 0.48 240.96 0.48L240.96 0.48Z M276.08-28L282.56-28L282.56 0L276.08 0L276.08-11.48L263.36-11.48L263.36 0L256.88 0L256.88-28L263.36-28L263.36-16.96L276.08-16.96L276.08-28Z"/></g>
</svg>
</g></svg></svg>