<svg version="1.1" preserveAspectRatio="none" xmlns="http://www.w3.org/2000/svg" width="500" height="500" viewBox="0 0 500 500"><rect width="100%" height="100%" fill="#BE8A62" fill-opacity="1"/><svg viewBox="86.4607 115.7856 381.9713 320.9397" width="333" height="279.7930632484692" x="83.5px" y="110.1035px" xmlns="http://www.w3.org/2000/svg" xmlns:xlink="http://www.w3.org/1999/xlink" preserveAspectRatio="none"><defs></defs><style>.companyName {fill:#F3F0ED;fill-opacity:1;}.icon1 {fill:#F3F0ED;fill-opacity:1;}.icon2 {fill:#F3B340;fill-opacity:1;}.icon3 {fill:#FDCEAC;fill-opacity:1;}.icon3-str {stroke:#FDCEAC;stroke-opacity:1;}</style><g opacity="1" transform="rotate(0 181.9535 115.7856)">
<svg width="190.9857" height="190.9397" x="181.9535" y="115.7856" version="1.1" preserveAspectRatio="none" viewBox="20.41046714782715 20.56975746154785 159.11981201171875 159.08164978027344">
  <g transform="matrix(1 0 0 1 0 0)"><g><path d="M99.371 61.77c-2.679 2.679-6.943 2.829-9.422.622l-.234-.221L67.944 40.4a7.112 7.112 0 0 1 9.8-10.302l.257.245 21.528 21.528c2.679 2.679 2.608 7.134-.158 9.899zm23.898 56.381l-.39.446c-12.65 14.541-34.405 15.255-47.585 2.064l-.405-.412-43.605-43.606a6.815 6.815 0 0 1 9.385-9.881l.254.242 43.606 43.606c7.882 7.882 21.32 7.343 28.798-2.046 5.925-7.333 4.919-18.34-1.687-25.293l-.359-.369-1.911-1.911c-2.627-2.627-2.608-6.946.042-9.597 2.568-2.568 6.701-2.666 9.345-.281l.251.239 1.672 1.672c12.281 12.279 13.74 32.11 2.589 45.127zm15.638 19.735c-6.929 6.929-15.305 11.932-24.65 14.533-3.715.914-7.442-1.323-8.341-5.174l-.078-.378-.002-.48c-.476-3.241 1.503-6.248 4.653-7.307l.355-.11c7.428-2.129 14.128-6.419 19.621-12.394 15.367-17.274 13.768-43.553-2.391-59.738l-.494-.487-34.244-34.243a6.758 6.758 0 0 1 9.305-9.797l.252.24 34.244 34.244c22.401 22.401 23.748 58.631 1.77 81.091zm-48.7 8.868c-.455 4.254-4.464 6.838-8.726 5.402-8.673-2.315-16.696-7.046-23.431-13.554l-.743-.73-34.936-34.936a6.66 6.66 0 0 1 9.162-9.663l.257.244 34.936 34.936c5.223 5.223 11.385 9.031 18.486 10.951 3.314.959 5.454 4.042 4.995 7.35zm88.676-37.93c-.489 3.24-3.424 5.384-6.639 5.122l-.345-.037-1.911-.463c-3.107-.693-4.761-3.313-4.496-6.427 2.515-19.345-3.785-38.618-17.346-52.579l-.651-.661L131 37.284a6.829 6.829 0 0 1 9.401-9.898l.255.242 16.495 16.495c16.858 16.86 24.801 40.735 21.732 64.701zm-24.027 48.308c-29.834 30.306-80.243 29.723-110.892.065l-.923-.908-15.328-15.328a6.937 6.937 0 0 1-.121-9.687l.115-.118a6.6 6.6 0 0 1 9.079-.241l.254.241 15.805 15.805c25.3 25.3 67.589 25.974 92.462.623 4.305-4.783 8.373-10.282 11.246-16.019 1.676-3.108 5.5-4.545 8.605-3.354 3.582 1.669 5.25 5.729 3.574 9.314-3.351 7.172-8.136 13.867-13.876 19.607z" data-color="1" class="icon1"></path><path d="M100.629 100.74c2.766-2.766 2.875-7.182.242-9.814L54.117 44.171A7.112 7.112 0 0 0 44.06 54.228l46.754 46.754c2.633 2.632 7.049 2.523 9.815-.242z" data-color="2" class="icon2"></path><path opacity=".35" d="M130.464 126.577c-5.493 5.975-12.193 10.266-19.621 12.394-3.355.946-5.501 4.056-5.008 7.416l.002.48c.736 4.081 4.585 6.496 8.419 5.552 9.345-2.601 17.721-7.604 24.65-14.533 21.979-22.46 20.631-58.69-1.77-81.091l-34.243-34.244a6.758 6.758 0 0 0-9.557 9.557l34.244 34.244c16.618 16.14 18.406 42.776 2.884 60.225z" data-color="2" class="icon2"></path><path opacity=".35" d="M90.207 146.754c.459-3.308-1.681-6.39-4.995-7.35-7.101-1.92-13.263-5.729-18.486-10.951L31.789 93.516a6.66 6.66 0 1 0-9.419 9.419l34.936 34.936c6.885 6.885 15.18 11.884 24.174 14.285 4.263 1.436 8.271-1.148 8.727-5.402z" data-color="2" class="icon2"></path><path opacity=".7" d="M99.371 61.77c2.766-2.766 2.836-7.22.157-9.899L78.001 30.343A7.112 7.112 0 0 0 67.944 40.4l21.771 21.771c2.436 2.436 6.891 2.365 9.656-.401z" data-color="2" class="icon2"></path><path opacity=".7" d="M122.879 118.597c11.573-13.006 10.223-33.153-2.198-45.573l-1.672-1.672c-2.627-2.627-6.946-2.608-9.597.042-2.651 2.651-2.67 6.969-.042 9.597l1.911 1.911c6.927 6.927 8.077 18.198 2.046 25.661-7.479 9.39-20.916 9.929-28.798 2.046L40.923 67.004a6.815 6.815 0 0 0-9.639 0 6.815 6.815 0 0 0 0 9.639l43.606 43.606c13.135 13.616 35.209 13.039 47.989-1.652z" data-color="2" class="icon2"></path></g></g>
</svg>
</g><g opacity="1" transform="rotate(0 86.4607 346.7253)">
<svg width="381.9713" height="90" x="86.4607" y="346.7253" version="1.1" preserveAspectRatio="none" viewBox="3.4 -29.6 166.2 39.160000000000004">
  <g transform="matrix(1 0 0 1 0 0)" class="companyName"><path id="id-D6z1nYkh10" d="M18.48 0L3.40 0Q3.40 0.12 3.88-0.18Q4.36-0.48 4.74-1.38Q5.12-2.28 5.12-4L5.12-4L5.12-23.64Q5.12-25.28 4.74-26.14Q4.36-27 3.88-27.32Q3.40-27.64 3.40-27.52L3.40-27.52L17.88-27.52L17.88-23.52Q17.16-25.92 13.56-25.92L13.56-25.92L8-25.92L8-14.56L14.88-14.56Q15.68-14.56 16.24-14.82Q16.80-15.08 17.08-15.36Q17.36-15.64 17.40-15.72L17.40-15.72L17.40-11.84Q17.36-11.92 17.08-12.20Q16.80-12.48 16.26-12.72Q15.72-12.96 14.92-12.96L14.92-12.96L8-12.96L8-1.60L14.24-1.60Q16.04-1.60 17.34-2.34Q18.64-3.08 19.20-4.24L19.20-4.24L18.48 0Z M26.88-12.16Q27.80-13.40 29.06-14.14Q30.32-14.88 31.72-14.88L31.72-14.88Q33.88-14.88 35.18-13.50Q36.48-12.12 36.48-9.52L36.48-9.52L36.48-3.96Q36.48-2.28 36.84-1.40Q37.20-0.52 37.64-0.20Q38.08 0.12 38.08 0L38.08 0L32.32 0Q32.32 0.12 32.76-0.18Q33.20-0.48 33.56-1.36Q33.92-2.24 33.92-4L33.92-4L33.92-8.56Q33.92-9.92 33.56-10.72Q33.20-11.52 32.60-12.04L32.60-12.04Q31.68-12.80 30.40-12.80L30.40-12.80Q28.96-12.80 27.92-11.86Q26.88-10.92 26.88-9.24L26.88-9.24L26.88-4Q26.88-2.28 27.24-1.40Q27.60-0.52 28.06-0.20Q28.52 0.12 28.52 0L28.52 0L22.76 0Q22.76 0.12 23.20-0.18Q23.64-0.48 23.98-1.38Q24.32-2.28 24.32-4L24.32-4L24.32-10.04Q24.32-11.72 23.78-12.34Q23.24-12.96 22.56-12.96L22.56-12.96L26.88-14.88L26.88-12.16Z M48.20 0.48Q46.04 0.48 44.48-0.58Q42.92-1.64 42.10-3.34Q41.28-5.04 41.28-6.96L41.28-6.96Q41.28-9.44 42.26-11.24Q43.24-13.04 44.80-13.96Q46.36-14.88 48.04-14.88L48.04-14.88Q50.44-14.88 52.18-13.14Q53.92-11.40 54.08-8.32L54.08-8.32L43.68-8.32Q43.68-6.40 44.40-4.94Q45.12-3.48 46.34-2.70Q47.56-1.92 49-1.92L49-1.92Q52.76-1.92 54.08-4.32L54.08-4.32Q53.72-2.16 52.12-0.84Q50.52 0.48 48.20 0.48L48.20 0.48ZM47.76-13.56Q46.20-13.56 45.08-12.46Q43.96-11.36 43.72-9.60L43.72-9.60L51-9.60Q51-11.44 50.02-12.50Q49.04-13.56 47.76-13.56L47.76-13.56Z M61.44-11.24Q62.04-12.52 63.42-13.70Q64.80-14.88 66.20-14.88L66.20-14.88Q67.08-14.88 67.52-14.64L67.52-14.64L67.52-11.36Q66.64-12.44 65.04-12.44L65.04-12.44Q63.36-12.44 62.40-10.98Q61.44-9.52 61.44-7.24L61.44-7.24L61.44-4Q61.44-1.76 61.96-0.92Q62.48-0.08 62.96 0L62.96 0L57.32 0Q57.80-0.08 58.34-0.90Q58.88-1.72 58.88-4L58.88-4L58.88-10.04Q58.88-11.72 58.34-12.34Q57.80-12.96 57.12-12.96L57.12-12.96L61.44-14.88L61.44-11.24Z M78.96-14.56L84.44-14.56L84.44-12.96L81.12-12.96Q82.56-11.20 82.56-9.36L82.56-9.36Q82.56-7.80 81.80-6.46Q81.04-5.12 79.62-4.32Q78.20-3.52 76.32-3.52L76.32-3.52Q75.36-3.52 74.40-3.68L74.40-3.68Q72.96-2.88 72.96-1.88L72.96-1.88Q72.96-1.48 73.16-1.12Q73.36-0.76 73.76-0.60L73.76-0.60Q74.32-0.36 75.20-0.26Q76.08-0.16 77.04-0.12Q78-0.08 78.40-0.08L78.40-0.08Q81.52 0.04 82.84 1.12Q84.16 2.20 84.16 3.72L84.16 3.72Q84.16 5.32 83.14 6.66Q82.12 8 80.20 8.78Q78.28 9.56 75.76 9.56L75.76 9.56Q73.92 9.56 72.56 9.04Q71.20 8.52 70.48 7.68Q69.76 6.84 69.76 5.88L69.76 5.88Q69.76 4.60 70.86 3.50Q71.96 2.40 73.60 1.84L73.60 1.84Q72.28 1.76 71.50 0.96Q70.72 0.16 70.72-0.76L70.72-0.76Q70.72-1.76 71.40-2.50Q72.08-3.24 73.36-4.08L73.36-4.08Q71.92-4.72 71.16-6.08Q70.40-7.44 70.40-8.96L70.40-8.96Q70.40-10.44 71.14-11.80Q71.88-13.16 73.34-14.02Q74.80-14.88 76.80-14.88L76.80-14.88Q77.84-14.88 78.96-14.56L78.96-14.56ZM76.36-13.44Q74.88-13.44 73.92-12.38Q72.96-11.32 72.96-9.68L72.96-9.68Q72.96-7.64 74.02-6.34Q75.08-5.04 76.60-5.04L76.60-5.04Q78.20-5.04 79.10-6.10Q80-7.16 80-8.92L80-8.92Q80-10.92 78.94-12.18Q77.88-13.44 76.36-13.44L76.36-13.44ZM76.52 2.32L75.68 2.32Q74.20 2.32 73.26 3.24Q72.32 4.16 72.32 5.28L72.32 5.28Q72.32 6.36 73.54 7.14Q74.76 7.92 76.80 7.92L76.80 7.92Q79.24 7.92 80.58 7Q81.92 6.08 81.92 4.72L81.92 4.72Q81.92 3.52 80.64 2.92Q79.36 2.32 76.52 2.32L76.52 2.32Z M91.88-0.12L92.32-1.20L87.64-11.80Q86.96-13.32 86.34-13.90Q85.72-14.48 85.36-14.56L85.36-14.56L91.20-14.56Q90.84-14.48 90.48-14.20Q90.12-13.92 90.12-13.20L90.12-13.20Q90.12-12.52 90.52-11.68L90.52-11.68L93.76-4.20L96.64-11.28Q96.92-12 96.92-12.76L96.92-12.76Q96.92-13.48 96.62-13.96Q96.32-14.44 95.64-14.56L95.64-14.56L101-14.56Q100.56-14.48 99.86-13.88Q99.16-13.28 98.48-11.64L98.48-11.64L93.04 1Q91.96 3.52 91.44 4.98Q90.92 6.44 90.44 8L90.44 8Q90.24 8.76 90.04 9.28L90.04 9.28L85.96 9.28Q87.04 8.76 88.62 6.36Q90.20 3.96 91.88-0.12L91.88-0.12Z M107.04-25.92Q105.28-25.92 104.12-25.24Q102.96-24.56 102.44-23.52L102.44-23.52L103-27.52L121.96-27.52L122.52-23.52Q122-24.56 120.84-25.24Q119.68-25.92 117.92-25.92L117.92-25.92L113.92-25.92L113.92-3.72Q113.92-2.12 114.32-1.28Q114.72-0.44 115.20-0.16Q115.68 0.12 115.68 0L115.68 0L109.32 0Q109.32 0.12 109.80-0.16Q110.28-0.44 110.66-1.26Q111.04-2.08 111.04-3.72L111.04-3.72L111.04-25.92L107.04-25.92Z M129.16 0.48Q127 0.48 125.44-0.58Q123.88-1.64 123.06-3.34Q122.24-5.04 122.24-6.96L122.24-6.96Q122.24-9.44 123.22-11.24Q124.20-13.04 125.76-13.96Q127.32-14.88 129-14.88L129-14.88Q131.40-14.88 133.14-13.14Q134.88-11.40 135.04-8.32L135.04-8.32L124.64-8.32Q124.64-6.40 125.36-4.94Q126.08-3.48 127.30-2.70Q128.52-1.92 129.96-1.92L129.96-1.92Q133.72-1.92 135.04-4.32L135.04-4.32Q134.68-2.16 133.08-0.84Q131.48 0.48 129.16 0.48L129.16 0.48ZM128.72-13.56Q127.16-13.56 126.04-12.46Q124.92-11.36 124.68-9.60L124.68-9.60L131.96-9.60Q131.96-11.44 130.98-12.50Q130-13.56 128.72-13.56L128.72-13.56Z M145.32 0.48Q143.16 0.48 141.54-0.56Q139.92-1.60 139.08-3.32Q138.24-5.04 138.24-6.96L138.24-6.96Q138.24-8.96 139.10-10.78Q139.96-12.60 141.60-13.74Q143.24-14.88 145.48-14.88L145.48-14.88Q148.16-14.88 149.36-13.72Q150.56-12.56 151.04-11.28L151.04-11.28L148.40-10Q148.16-11.44 147.22-12.44Q146.28-13.44 144.92-13.44L144.92-13.44Q142.96-13.44 141.88-11.92Q140.80-10.40 140.80-8.20L140.80-8.20Q140.80-6.64 141.50-5.18Q142.20-3.72 143.50-2.80Q144.80-1.88 146.56-1.88L146.56-1.88Q148-1.88 149.30-2.54Q150.60-3.20 151.36-4.32L151.36-4.32Q150.92-2.08 149.28-0.80Q147.64 0.48 145.32 0.48L145.32 0.48Z M158.40-12.52Q159.28-13.56 160.56-14.22Q161.84-14.88 163.24-14.88L163.24-14.88Q165.40-14.88 166.70-13.50Q168-12.12 168-9.52L168-9.52L168-3.96Q168-2.28 168.36-1.40Q168.72-0.52 169.16-0.20Q169.60 0.12 169.60 0L169.60 0L163.84 0Q163.84 0.12 164.28-0.18Q164.72-0.48 165.08-1.36Q165.44-2.24 165.44-4L165.44-4L165.44-8.56Q165.44-9.92 165.08-10.72Q164.72-11.52 164.12-12.04L164.12-12.04Q163.20-12.80 161.92-12.80L161.92-12.80Q160.48-12.80 159.44-11.86Q158.40-10.92 158.40-9.24L158.40-9.24L158.40-4Q158.40-2.28 158.76-1.40Q159.12-0.52 159.58-0.20Q160.04 0.12 160.04 0L160.04 0L154.28 0Q154.28 0.12 154.72-0.18Q155.16-0.48 155.50-1.38Q155.84-2.28 155.84-4L155.84-4L155.84-24.60Q155.84-26.28 155.30-26.90Q154.76-27.52 154.08-27.52L154.08-27.52L153.84-27.52L158.40-29.60L158.40-12.52Z"/></g>
</svg>
</g></svg></svg>