<svg version="1.1" preserveAspectRatio="none" xmlns="http://www.w3.org/2000/svg" width="500" height="500" viewBox="0 0 500 500"><rect width="100%" height="100%" fill="#FFFFFF" fill-opacity="1"/><svg viewBox="72.0866 99.5036 343.4042 255.8072" width="333" height="248.0569474689011" x="83.5px" y="125.9715px" xmlns="http://www.w3.org/2000/svg" xmlns:xlink="http://www.w3.org/1999/xlink" preserveAspectRatio="none"><defs></defs><style>.aLgOaV3zRcolors-3 {fill:#842416;fill-opacity:1;}.aLgOaV3zRcolors-4 {fill:#AE962C;fill-opacity:1;}.aLgOaV3zRcolors-5 {fill:#494B46;fill-opacity:1;}.aLgOaV3zRcolors-6 {fill:#67590C;fill-opacity:1;}.aLgOaV3zRcolors-7 {fill:#AEAEAE;fill-opacity:1;}.companyName {fill:#A95534;fill-opacity:1;}.icon1 {fill:#DFC13F;fill-opacity:1;}.icon2 {fill:#A95534;fill-opacity:1;}.icon3 {fill:#451813;fill-opacity:1;}.icon3-str {stroke:#451813;stroke-opacity:1;}</style><g opacity="1" transform="rotate(0 72.0866 305.3108)">
<svg width="343.4042" height="50" x="72.0866" y="305.3108" version="1.1" preserveAspectRatio="none" viewBox="1.04 -29.2 266.48 38.8">
  <g transform="matrix(1 0 0 1 0 0)" class="companyName"><path id="id-D6z1nYkh10" d="M1.04-0.80L2.52-1.12Q3.12-1.24 3.30-1.40Q3.48-1.56 3.48-2L3.48-2L3.48-26Q3.48-26.44 3.30-26.60Q3.12-26.76 2.52-26.88L2.52-26.88L1.04-27.20L1.04-28L25.68-28L25.68-20.20L24.68-20.20Q23.84-22.80 23.10-24.12Q22.36-25.44 21.04-26.12Q19.72-26.80 17.32-26.80L17.32-26.80L11.64-26.80L11.64-14.92L21.96-14.92L21.96-13.72L11.64-13.72L11.64-1.20L17.72-1.20Q20.08-1.20 21.44-1.92Q22.80-2.64 23.58-4Q24.36-5.36 25.20-7.96L25.20-7.96L26.24-7.96L26.24 0L1.04 0L1.04-0.80Z M55.56-1.92Q55.56-1.48 55.74-1.32Q55.92-1.16 56.52-1.04L56.52-1.04L57.92-0.72L57.92 0L49.60 0Q48.52 0 48.04-0.56Q47.56-1.12 47.56-2.24L47.56-2.24L47.56-14.40Q47.56-16.20 46.98-16.96Q46.40-17.72 45.04-17.72L45.04-17.72Q42.64-17.72 40.12-15.72L40.12-15.72L40.12-1.92Q40.12-1.48 40.30-1.30Q40.48-1.12 41.04-1L41.04-1L42.40-0.72L42.40 0L29.76 0L29.76-0.72L31.16-1.04Q31.76-1.16 31.94-1.32Q32.12-1.48 32.12-1.92L32.12-1.92L32.12-17.04Q32.12-17.48 31.94-17.64Q31.76-17.80 31.16-17.92L31.16-17.92L29.76-18.24L29.76-18.96L39.36-20.16L40.04-20.16L40.04-16.92Q41.56-18.16 43.76-19.04Q45.96-19.92 48.64-19.92L48.64-19.92Q52.36-19.92 53.96-18.36Q55.56-16.80 55.56-13.68L55.56-13.68L55.56-1.92Z M69.04-10.24Q69.08-5.80 70.46-3.48Q71.84-1.16 75.64-1.16L75.64-1.16Q77.52-1.16 78.98-1.72Q80.44-2.28 82-3.32L82-3.32L82.52-2.56Q78.80 0.48 72.68 0.48L72.68 0.48Q67.16 0.48 63.98-2.18Q60.80-4.84 60.80-9.96L60.80-9.96Q60.80-14.80 64.04-17.36Q67.28-19.92 73.12-19.92L73.12-19.92Q76.44-19.92 78.72-18.88Q81-17.84 82.10-16.10Q83.20-14.36 83.20-12.24L83.20-12.24Q83.20-11.16 83-10.24L83-10.24L69.04-10.24ZM72.88-18.96Q70.68-18.96 69.88-17.12Q69.08-15.28 69.04-11.28L69.04-11.28L75.76-11.28L75.76-14.28Q75.76-16.72 75.18-17.84Q74.60-18.96 72.88-18.96L72.88-18.96Z M96.36-16.24Q99.84-19.80 103.44-19.80L103.44-19.80Q104.76-19.80 105.52-19.48L105.52-19.48L104.92-13.24L104.64-13.24L96.44-15.04L96.44-1.92Q96.44-1.48 96.62-1.30Q96.80-1.12 97.36-1L97.36-1L98.72-0.72L98.72 0L86.08 0L86.08-0.72L87.48-1.04Q88.08-1.16 88.26-1.32Q88.44-1.48 88.44-1.92L88.44-1.92L88.44-17.04Q88.44-17.48 88.26-17.64Q88.08-17.80 87.48-17.92L87.48-17.92L86.08-18.24L86.08-18.96L95.68-20.16L96.36-20.16L96.36-16.24Z M130.40-19.16Q128.80-19.60 127.60-19.60L127.60-19.60Q126.48-19.60 125.80-19.16L125.80-19.16Q130.88-17.72 130.88-13.40L130.88-13.40Q130.88-9.92 128.12-8.38Q125.36-6.84 120.32-6.84L120.32-6.84Q117.48-6.84 115.40-7.36L115.40-7.36Q114.16-7.28 113.22-6.94Q112.28-6.60 112.28-6.04L112.28-6.04Q112.28-5.44 112.80-5.14Q113.32-4.84 114.44-4.66Q115.56-4.48 118.16-4.24L118.16-4.24L124.96-3.60Q127.84-3.32 129.54-2.70Q131.24-2.08 132.02-0.90Q132.80 0.28 132.80 2.20L132.80 2.20Q132.80 4.76 130.94 6.42Q129.08 8.08 126.16 8.84Q123.24 9.60 119.92 9.60L119.92 9.60Q115.16 9.60 112.10 8.30Q109.04 7 109.04 4.36L109.04 4.36Q109.04 2.68 110.36 1.76Q111.68 0.84 113.84 0.56L113.84 0.56Q109.28-0.52 109.28-3.72L109.28-3.72Q109.28-7.20 113.52-7.96L113.52-7.96Q109.76-9.60 109.76-13.40L109.76-13.40Q109.76-16.88 112.50-18.36Q115.24-19.84 120.32-19.84L120.32-19.84Q122.76-19.76 124.56-19.44L124.56-19.44Q125.72-21.20 127.80-22.34Q129.88-23.48 132.80-23.48L132.80-23.48L131.84-18.88L131.40-18.88L130.40-19.16ZM120.32-7.84Q122.20-7.84 122.86-9.18Q123.52-10.52 123.52-13.40L123.52-13.40Q123.52-16.16 122.86-17.50Q122.20-18.84 120.32-18.84L120.32-18.84Q118.44-18.84 117.78-17.50Q117.12-16.16 117.12-13.40L117.12-13.40Q117.12-10.52 117.78-9.18Q118.44-7.84 120.32-7.84L120.32-7.84ZM118 1.24Q115.88 0.96 115.04 0.80L115.04 0.80Q114.52 1.92 114.52 3.64L114.52 3.64Q114.52 6.12 115.72 7.32Q116.92 8.52 120.20 8.52L120.20 8.52Q124.04 8.52 126.16 7.58Q128.28 6.64 128.28 4.80L128.28 4.80Q128.28 3.76 127.86 3.22Q127.44 2.68 126.48 2.38Q125.52 2.08 123.64 1.88L123.64 1.88L118 1.24Z M147.12-18.84L146.08-18.60Q145.16-18.40 145.16-17.84L145.16-17.84Q145.16-17.60 145.36-17.20L145.36-17.20L150-7.88L154.36-18.04Q154.48-18.28 154.48-18.44L154.48-18.44Q154.48-18.68 153.96-18.72L153.96-18.72L152.92-18.84L152.92-19.44L157.52-19.44L157.52-18.84L156.48-18.68Q156-18.60 155.80-18.48Q155.60-18.36 155.40-17.92L155.40-17.92L147.60 0Q146 3.72 144.98 5.46Q143.96 7.20 142.70 8.14Q141.44 9.08 139.32 9.60L139.32 9.60L137.16 3.52Q139.88 3.40 142.32 2.62Q144.76 1.84 146.52 0.64L146.52 0.64L136.88-17.76Q136.68-18.12 136.42-18.28Q136.16-18.44 135.76-18.52L135.76-18.52L134.56-18.84L134.56-19.44L147.12-19.44L147.12-18.84Z M176.24-2Q176.24-1.56 176.42-1.40Q176.60-1.24 177.20-1.12L177.20-1.12L178.68-0.80L178.68 0L165.64 0L165.64-0.80L167.12-1.12Q167.72-1.24 167.90-1.40Q168.08-1.56 168.08-2L168.08-2L168.08-26.88L167.16-26.88Q164.72-26.88 163.38-26.08Q162.04-25.28 161.34-24Q160.64-22.72 159.60-19.92L159.60-19.92L158.72-19.92L158.72-28L185.60-28L185.60-19.92L184.72-19.92Q183.68-22.72 182.98-24Q182.28-25.28 180.94-26.08Q179.60-26.88 177.16-26.88L177.16-26.88L176.24-26.88L176.24-2Z M196.88-10.24Q196.92-5.80 198.30-3.48Q199.68-1.16 203.48-1.16L203.48-1.16Q205.36-1.16 206.82-1.72Q208.28-2.28 209.84-3.32L209.84-3.32L210.36-2.56Q206.64 0.48 200.52 0.48L200.52 0.48Q195 0.48 191.82-2.18Q188.64-4.84 188.64-9.96L188.64-9.96Q188.64-14.80 191.88-17.36Q195.12-19.92 200.96-19.92L200.96-19.92Q204.28-19.92 206.56-18.88Q208.84-17.84 209.94-16.10Q211.04-14.36 211.04-12.24L211.04-12.24Q211.04-11.16 210.84-10.24L210.84-10.24L196.88-10.24ZM200.72-18.96Q198.52-18.96 197.72-17.12Q196.92-15.28 196.88-11.28L196.88-11.28L203.60-11.28L203.60-14.28Q203.60-16.72 203.02-17.84Q202.44-18.96 200.72-18.96L200.72-18.96Z M227.92-19.92Q232.92-19.92 236.12-18.32L236.12-18.32L235.64-13.08L234.88-13.08Q234.04-16.04 232.66-17.46Q231.28-18.88 228.64-18.88L228.64-18.88Q225.72-18.88 224.50-16.84Q223.28-14.80 223.28-10.80L223.28-10.80Q223.28-7.48 223.80-5.44Q224.32-3.40 225.68-2.34Q227.04-1.28 229.52-1.28L229.52-1.28Q231.40-1.28 232.96-1.82Q234.52-2.36 236.04-3.40L236.04-3.40L236.56-2.64Q234.68-1.20 232.34-0.36Q230 0.48 226.88 0.48L226.88 0.48Q221.24 0.48 218.10-2.12Q214.96-4.72 214.96-9.96L214.96-9.96Q214.96-14.92 218.24-17.42Q221.52-19.92 227.92-19.92L227.92-19.92Z M265.16-1.92Q265.16-1.48 265.34-1.32Q265.52-1.16 266.12-1.04L266.12-1.04L267.52-0.72L267.52 0L259.20 0Q258.12 0 257.64-0.56Q257.16-1.12 257.16-2.24L257.16-2.24L257.16-14.40Q257.16-16.20 256.58-16.96Q256-17.72 254.64-17.72L254.64-17.72Q252.24-17.72 249.72-15.72L249.72-15.72L249.72-1.92Q249.72-1.48 249.90-1.30Q250.08-1.12 250.64-1L250.64-1L252-0.72L252 0L239.36 0L239.36-0.72L240.76-1.04Q241.36-1.16 241.54-1.32Q241.72-1.48 241.72-1.92L241.72-1.92L241.72-26.08Q241.72-26.52 241.54-26.68Q241.36-26.84 240.76-26.96L240.76-26.96L239.36-27.28L239.36-28L248.96-29.20L249.72-29.20L249.72-16.96Q251.24-18.20 253.40-19.06Q255.56-19.92 258.24-19.92L258.24-19.92Q261.96-19.92 263.56-18.36Q265.16-16.80 265.16-13.68L265.16-13.68L265.16-1.92Z"/></g>
</svg>
</g><g opacity="1" transform="rotate(0 157.9377 99.5036)">
<svg width="171.7021" height="175.8072" x="157.9377" y="99.5036" version="1.1" preserveAspectRatio="none" viewBox="21.872940063476562 20.07293701171875 156.21910095214844 159.95413208007812">
  <g transform="matrix(1 0 0 1 0 0)"><g><path d="M169.4 176.9c-7.9 4-17.6.8-21.5-7L83.6 43.3c-4-7.9-.8-17.6 7-21.5 7.9-4 17.6-.8 21.5 7l64.2 126.6c4.1 7.8.9 17.5-6.9 21.5z" data-color="1" class="icon1"></path><path d="M119.2 178.3c-7.9 4-17.6.8-21.5-7L52.8 82.9c-4-7.9-.8-17.6 7-21.5 7.9-4 17.6-.8 21.5 7l44.8 88.3c4.1 7.9.9 17.6-6.9 21.6z" data-color="2" class="icon2"></path><path d="M67.4 176.6c-7.9 4-17.6.8-21.5-7l-22.3-43.9c-4-7.9-.8-17.6 7-21.5 7.9-4 17.6-.8 21.5 7l22.3 43.9c4 7.8.9 17.5-7 21.5z" data-color="3" class="icon3"></path></g></g>
</svg>
</g></svg></svg>